<?xml version="1.0" encoding="UTF-8" standalone="no"?>
<!-- Created with Inkscape (http://www.inkscape.org/) -->

<svg
   xmlns:dc="http://purl.org/dc/elements/1.1/"
   xmlns:cc="http://creativecommons.org/ns#"
   xmlns:rdf="http://www.w3.org/1999/02/22-rdf-syntax-ns#"
   xmlns:svg="http://www.w3.org/2000/svg"
   xmlns="http://www.w3.org/2000/svg"
   xmlns:sodipodi="http://sodipodi.sourceforge.net/DTD/sodipodi-0.dtd"
   xmlns:inkscape="http://www.inkscape.org/namespaces/inkscape"
   width="400"
   height="100"
   viewBox="0 0 105.83333 26.458334"
   version="1.1"
   id="svg8"
   inkscape:version="0.92.1 r"
   sodipodi:docname="LOGO.svg"
   inkscape:export-filename="/home/moellers/Projects/Masterarbeit/ModelInterchange/LOGO.png"
   inkscape:export-xdpi="96"
   inkscape:export-ydpi="96">
  <defs
     id="defs2">
    <marker
       inkscape:stockid="Arrow2Lstart"
       orient="auto"
       refY="0.0"
       refX="0.0"
       id="marker7136"
       style="overflow:visible"
       inkscape:isstock="true">
      <path
         id="path7134"
         style="fill-rule:evenodd;stroke-width:0.625;stroke-linejoin:round;stroke:#000000;stroke-opacity:1;fill:#000000;fill-opacity:1"
         d="M 8.7185878,4.0337352 L -2.2072895,0.016013256 L 8.7185884,-4.0017078 C 6.9730900,-1.6296469 6.9831476,1.6157441 8.7185878,4.0337352 z "
         transform="scale(1.1) translate(1,0)" />
    </marker>
    <marker
       inkscape:stockid="DotM"
       orient="auto"
       refY="0.0"
       refX="0.0"
       id="DotM"
       style="overflow:visible"
       inkscape:isstock="true">
      <path
         id="path4810"
         d="M -2.5,-1.0 C -2.5,1.7600000 -4.7400000,4.0 -7.5,4.0 C -10.260000,4.0 -12.5,1.7600000 -12.5,-1.0 C -12.5,-3.7600000 -10.260000,-6.0 -7.5,-6.0 C -4.7400000,-6.0 -2.5,-3.7600000 -2.5,-1.0 z "
         style="fill-rule:evenodd;stroke:#000000;stroke-width:1pt;stroke-opacity:1;fill:#000000;fill-opacity:1"
         transform="scale(0.4) translate(7.4, 1)" />
    </marker>
    <marker
       inkscape:stockid="Arrow2Lstart"
       orient="auto"
       refY="0.0"
       refX="0.0"
       id="Arrow2Lstart"
       style="overflow:visible"
       inkscape:isstock="true">
      <path
         id="path4764"
         style="fill-rule:evenodd;stroke-width:0.625;stroke-linejoin:round;stroke:#000000;stroke-opacity:1;fill:#000000;fill-opacity:1"
         d="M 8.7185878,4.0337352 L -2.2072895,0.016013256 L 8.7185884,-4.0017078 C 6.9730900,-1.6296469 6.9831476,1.6157441 8.7185878,4.0337352 z "
         transform="scale(1.1) translate(1,0)" />
    </marker>
    <marker
       inkscape:stockid="Arrow1Lend"
       orient="auto"
       refY="0.0"
       refX="0.0"
       id="Arrow1Lend"
       style="overflow:visible;"
       inkscape:isstock="true">
      <path
         id="path4749"
         d="M 0.0,0.0 L 5.0,-5.0 L -12.5,0.0 L 5.0,5.0 L 0.0,0.0 z "
         style="fill-rule:evenodd;stroke:#000000;stroke-width:1pt;stroke-opacity:1;fill:#000000;fill-opacity:1"
         transform="scale(0.8) rotate(180) translate(12.5,0)" />
    </marker>
    <marker
       inkscape:stockid="Arrow1Lstart"
       orient="auto"
       refY="0.0"
       refX="0.0"
       id="Arrow1Lstart"
       style="overflow:visible"
       inkscape:isstock="true">
      <path
         id="path4746"
         d="M 0.0,0.0 L 5.0,-5.0 L -12.5,0.0 L 5.0,5.0 L 0.0,0.0 z "
         style="fill-rule:evenodd;stroke:#000000;stroke-width:1pt;stroke-opacity:1;fill:#000000;fill-opacity:1"
         transform="scale(0.8) translate(12.5,0)" />
    </marker>
    <inkscape:path-effect
       effect="roughen"
       id="path-effect4744"
       is_visible="true"
       method="segments"
       max_segment_size="10"
       segments="2"
       displace_x="10;1"
       displace_y="10;1"
       global_randomize="1;1"
       handles="along"
       shift_nodes="true"
       fixed_displacement="false"
       spray_tool_friendly="false" />
    <inkscape:path-effect
       effect="gears"
       id="path-effect4742"
       is_visible="true"
       teeth="10"
       phi="5"
       min_radius="5" />
  </defs>
  <sodipodi:namedview
     id="base"
     pagecolor="#ffffff"
     bordercolor="#666666"
     borderopacity="1.0"
     inkscape:pageopacity="0.0"
     inkscape:pageshadow="2"
     inkscape:zoom="32"
     inkscape:cx="388.80307"
     inkscape:cy="51.529891"
     inkscape:document-units="px"
     inkscape:current-layer="layer1"
     showgrid="true"
     units="px"
     inkscape:window-width="1916"
     inkscape:window-height="1016"
     inkscape:window-x="0"
     inkscape:window-y="134"
     inkscape:window-maximized="0">
    <inkscape:grid
       type="xygrid"
       id="grid7341" />
  </sodipodi:namedview>
  <metadata
     id="metadata5">
    <rdf:RDF>
      <cc:Work
         rdf:about="">
        <dc:format>image/svg+xml</dc:format>
        <dc:type
           rdf:resource="http://purl.org/dc/dcmitype/StillImage" />
        <dc:title></dc:title>
      </cc:Work>
    </rdf:RDF>
  </metadata>
  <g
     inkscape:label="Ebene 1"
     inkscape:groupmode="layer"
     id="layer1"
     transform="translate(0,-270.54166)"
     style="opacity:0.99">
    <path
       inkscape:connector-curvature="0"
       id="path4491"
       style="font-style:normal;font-variant:normal;font-weight:normal;font-stretch:normal;font-size:medium;line-height:6.61458302px;font-family:Montserrat;-inkscape-font-specification:'Montserrat, Normal';font-variant-ligatures:normal;font-variant-caps:normal;font-variant-numeric:normal;font-feature-settings:normal;text-align:start;letter-spacing:0px;word-spacing:0px;writing-mode:lr-tb;text-anchor:start;fill:#4d4d4d;fill-opacity:1;stroke:none;stroke-width:0.35271278px;stroke-linecap:butt;stroke-linejoin:miter;stroke-opacity:1"
       d="m 37.676347,289.27528 -0.01653,-8.85363 -3.744818,7.61362 H 32.60886 l -3.736552,-7.61362 v 8.85363 H 26.9875 v -11.85445 h 2.372544 l 3.910153,7.87817 3.893617,-7.87817 h 2.356011 v 11.85445 z" />
    <path
       inkscape:connector-curvature="0"
       id="path4493"
       style="font-style:normal;font-variant:normal;font-weight:500;font-stretch:normal;font-size:9.87777805px;line-height:6.61458302px;font-family:Montserrat;-inkscape-font-specification:'Montserrat, Medium';font-variant-ligatures:normal;font-variant-caps:normal;font-variant-numeric:normal;font-feature-settings:normal;text-align:start;letter-spacing:0px;word-spacing:0px;writing-mode:lr-tb;text-anchor:start;fill:#4d4d4d;fill-opacity:1;stroke:none;stroke-width:0.35271278px;stroke-linecap:butt;stroke-linejoin:miter;stroke-opacity:1"
       d="m 41.010415,280.06666 v 9.21755 h 6.913171 v -1.54065 H 42.774919 V 285.426 h 4.477101 v -1.54065 h -4.477101 v -2.27804 h 4.990651 v -1.54065 z" />
    <path
       id="path4495"
       style="font-style:normal;font-variant:normal;font-weight:500;font-stretch:normal;font-size:9.87777805px;line-height:6.61458302px;font-family:Montserrat;-inkscape-font-specification:'Montserrat, Medium';font-variant-ligatures:normal;font-variant-caps:normal;font-variant-numeric:normal;font-feature-settings:normal;text-align:start;letter-spacing:0px;word-spacing:0px;writing-mode:lr-tb;text-anchor:start;fill:#4d4d4d;fill-opacity:1;stroke:none;stroke-width:0.35271278px;stroke-linecap:butt;stroke-linejoin:miter;stroke-opacity:1"
       d="m 49.212498,280.06666 v 1.56698 h 2.870612 v 7.65057 h 1.777673 v -7.65057 h 2.870612 v -1.56698 z"
       inkscape:connector-curvature="0" />
    <path
       id="path4497"
       style="font-style:normal;font-variant:normal;font-weight:500;font-stretch:normal;font-size:9.87777805px;line-height:6.61458302px;font-family:Montserrat;-inkscape-font-specification:'Montserrat, Medium';font-variant-ligatures:normal;font-variant-caps:normal;font-variant-numeric:normal;font-feature-settings:normal;text-align:start;letter-spacing:0px;word-spacing:0px;writing-mode:lr-tb;text-anchor:start;fill:#4d4d4d;fill-opacity:1;stroke:none;stroke-width:0.35271278px;stroke-linecap:butt;stroke-linejoin:miter;stroke-opacity:1"
       d="m 63.984462,289.28421 h 1.896184 l -3.989887,-9.21755 h -1.830344 l -4.042559,9.21755 h 1.830345 l 0.816412,-1.94885 h 4.503437 z m -4.687788,-3.46317 1.632826,-3.87137 1.606489,3.87137 z"
       inkscape:connector-curvature="0" />
    <path
       id="path4499"
       style="font-style:normal;font-variant:normal;font-weight:500;font-stretch:normal;font-size:9.87777805px;line-height:6.61458302px;font-family:Montserrat;-inkscape-font-specification:'Montserrat, Medium';font-variant-ligatures:normal;font-variant-caps:normal;font-variant-numeric:normal;font-feature-settings:normal;text-align:start;letter-spacing:0px;word-spacing:0px;writing-mode:lr-tb;text-anchor:start;fill:#4d4d4d;fill-opacity:1;stroke:none;stroke-width:0.35271278px;stroke-linecap:butt;stroke-linejoin:miter;stroke-opacity:1"
       d="m 73.071849,287.0665 c -0.632061,0.35553 -1.356298,0.57938 -1.988359,0.57938 -1.777673,0 -3.186644,-1.35629 -3.186644,-3.10762 0,-1.73818 1.395803,-3.09447 3.173476,-3.09447 0.934923,0 1.909352,0.39503 2.607252,1.04026 l 1.000764,-1.29046 c -0.921755,-0.80324 -2.278054,-1.3168 -3.608016,-1.3168 -2.817941,0 -4.977483,2.0147 -4.977483,4.66147 0,2.64675 2.120038,4.68778 4.872139,4.68778 1.27729,0 2.699428,-0.48721 3.64752,-1.19828 v -3.46318 h -1.540649 z"
       inkscape:connector-curvature="0" />
    <path
       id="path4501"
       style="font-style:normal;font-variant:normal;font-weight:500;font-stretch:normal;font-size:9.87777805px;line-height:6.61458302px;font-family:Montserrat;-inkscape-font-specification:'Montserrat, Medium';font-variant-ligatures:normal;font-variant-caps:normal;font-variant-numeric:normal;font-feature-settings:normal;text-align:start;letter-spacing:0px;word-spacing:0px;writing-mode:lr-tb;text-anchor:start;fill:#4d4d4d;fill-opacity:1;stroke:none;stroke-width:0.35271278px;stroke-linecap:butt;stroke-linejoin:miter;stroke-opacity:1"
       d="m 84.246836,289.28421 -2.027864,-3.05495 c 1.185115,-0.50039 1.830344,-1.54065 1.830344,-2.98913 0,-2.02787 -1.356298,-3.17347 -3.739696,-3.17347 h -3.845039 v 9.21755 h 1.764504 v -2.71259 h 2.080535 c 0.118512,0 0.223855,0 0.329198,-0.0133 l 1.593323,2.72576 z m -6.017751,-7.6769 h 2.080535 c 1.316795,0 2.054199,0.55304 2.054199,1.68549 0,1.15878 -0.737404,1.725 -2.054199,1.725 h -2.080535 z"
       inkscape:connector-curvature="0" />
    <path
       id="path4503"
       style="font-style:normal;font-variant:normal;font-weight:500;font-stretch:normal;font-size:9.87777805px;line-height:6.61458302px;font-family:Montserrat;-inkscape-font-specification:'Montserrat, Medium';font-variant-ligatures:normal;font-variant-caps:normal;font-variant-numeric:normal;font-feature-settings:normal;text-align:start;letter-spacing:0px;word-spacing:0px;writing-mode:lr-tb;text-anchor:start;fill:#4d4d4d;fill-opacity:1;stroke:none;stroke-width:0.35271278px;stroke-linecap:butt;stroke-linejoin:miter;stroke-opacity:1"
       d="m 92.824046,289.28421 h 1.896184 l -3.989888,-9.21755 h -1.830344 l -4.042559,9.21755 h 1.830344 l 0.816412,-1.94885 h 4.503439 z m -4.687788,-3.46317 1.632824,-3.87137 1.606489,3.87137 z"
       inkscape:connector-curvature="0" />
    <path
       id="path4505"
       style="font-style:normal;font-variant:normal;font-weight:500;font-stretch:normal;font-size:9.87777805px;line-height:6.61458302px;font-family:Montserrat;-inkscape-font-specification:'Montserrat, Medium';font-variant-ligatures:normal;font-variant-caps:normal;font-variant-numeric:normal;font-feature-settings:normal;text-align:start;letter-spacing:0px;word-spacing:0px;writing-mode:lr-tb;text-anchor:start;fill:#4d4d4d;fill-opacity:1;stroke:none;stroke-width:0.35271278px;stroke-linecap:butt;stroke-linejoin:miter;stroke-opacity:1"
       d="m 95.779165,280.06666 v 9.21755 h 1.632824 v -6.58397 l 2.725771,5.63588 h 1.14564 l 2.72576,-5.63588 0.0132,6.58397 h 1.60649 v -9.21755 h -2.02789 l -2.88378,5.9124 -2.896984,-5.9124 z"
       inkscape:connector-curvature="0" />
    <path
       style="color:#000000;font-style:normal;font-variant:normal;font-weight:normal;font-stretch:normal;font-size:medium;line-height:6.61458302px;font-family:Montserrat;-inkscape-font-specification:'Montserrat, Normal';font-variant-ligatures:normal;font-variant-position:normal;font-variant-caps:normal;font-variant-numeric:normal;font-variant-alternates:normal;font-feature-settings:normal;text-indent:0;text-align:start;text-decoration:none;text-decoration-line:none;text-decoration-style:solid;text-decoration-color:#000000;letter-spacing:0px;word-spacing:0px;text-transform:none;writing-mode:lr-tb;direction:ltr;text-orientation:mixed;dominant-baseline:auto;baseline-shift:baseline;text-anchor:start;white-space:normal;shape-padding:0;clip-rule:nonzero;display:inline;overflow:visible;visibility:visible;opacity:1;isolation:auto;mix-blend-mode:normal;color-interpolation:sRGB;color-interpolation-filters:linearRGB;solid-color:#000000;solid-opacity:1;vector-effect:none;fill:#4d4d4d;fill-opacity:1;fill-rule:nonzero;stroke:none;stroke-width:1.99999988;stroke-linecap:round;stroke-linejoin:miter;stroke-miterlimit:3.0999999;stroke-dasharray:none;stroke-dashoffset:0;stroke-opacity:1;paint-order:normal;color-rendering:auto;image-rendering:auto;shape-rendering:auto;text-rendering:auto;enable-background:accumulate"
       d="M 18.912109 63.65625 C 20.400572 68.9443 21.895658 74.230775 23.388672 79.517578 L 28.318359 74.457031 C 32.204189 78.357393 37.112047 81.18857 42.570312 82.560547 C 51.357223 84.755205 60.670301 82.950041 68.001953 77.632812 A 1.0001 1.0001 0 0 0 68.152344 77.503906 A 1.0001 1.0001 0 0 0 66.822266 76.015625 C 59.967922 80.986762 51.265705 82.670971 43.050781 80.619141 C 37.938994 79.332891 33.346745 76.680566 29.714844 73.023438 L 34.888672 67.712891 L 23.730469 64.878906 A 1.0038429 1.0038429 0 0 0 23.527344 64.828125 L 18.912109 63.65625 z "
       transform="matrix(0.26458333,0,0,0.26458333,0,270.54166)"
       id="path4740" />
    <path
       style="color:#000000;font-style:normal;font-variant:normal;font-weight:normal;font-stretch:normal;font-size:medium;line-height:6.61458302px;font-family:Montserrat;-inkscape-font-specification:'Montserrat, Normal';font-variant-ligatures:normal;font-variant-position:normal;font-variant-caps:normal;font-variant-numeric:normal;font-variant-alternates:normal;font-feature-settings:normal;text-indent:0;text-align:start;text-decoration:none;text-decoration-line:none;text-decoration-style:solid;text-decoration-color:#000000;letter-spacing:0px;word-spacing:0px;text-transform:none;writing-mode:lr-tb;direction:ltr;text-orientation:mixed;dominant-baseline:auto;baseline-shift:baseline;text-anchor:start;white-space:normal;shape-padding:0;clip-rule:nonzero;display:inline;overflow:visible;visibility:visible;opacity:1;isolation:auto;mix-blend-mode:normal;color-interpolation:sRGB;color-interpolation-filters:linearRGB;solid-color:#000000;solid-opacity:1;vector-effect:none;fill:#4d4d4d;fill-opacity:1;fill-rule:nonzero;stroke:none;stroke-width:1.99999988;stroke-linecap:round;stroke-linejoin:miter;stroke-miterlimit:3.0999999;stroke-dasharray:none;stroke-dashoffset:0;stroke-opacity:1;paint-order:normal;color-rendering:auto;image-rendering:auto;shape-rendering:auto;text-rendering:auto;enable-background:accumulate"
       d="M 36.447266 14.910156 L 38.365234 21.708984 C 33.045236 23.124065 28.140583 25.962286 24.222656 30.003906 C 17.928461 36.516146 14.8383 45.4764 15.777344 54.484375 A 1.0001 1.0001 0 0 0 17.5 55.080078 L 17.5 55.078125 A 1.0001 1.0001 0 0 0 17.761719 54.275391 C 16.883825 45.853809 19.773829 37.475122 25.658203 31.386719 C 29.328163 27.600788 33.922445 24.949097 38.90625 23.632812 L 40.919922 30.771484 L 48.953125 22.525391 A 1.0020655 1.0020655 0 0 0 49.113281 22.359375 A 1.0020655 1.0020655 0 0 0 49.115234 22.357422 L 52.421875 18.962891 C 47.098029 17.607968 41.772259 16.260581 36.447266 14.910156 z "
       transform="matrix(0.26458333,0,0,0.26458333,0,270.54166)"
       id="path7284" />
    <path
       style="color:#000000;font-style:normal;font-variant:normal;font-weight:normal;font-stretch:normal;font-size:medium;line-height:6.61458302px;font-family:Montserrat;-inkscape-font-specification:'Montserrat, Normal';font-variant-ligatures:normal;font-variant-position:normal;font-variant-caps:normal;font-variant-numeric:normal;font-variant-alternates:normal;font-feature-settings:normal;text-indent:0;text-align:start;text-decoration:none;text-decoration-line:none;text-decoration-style:solid;text-decoration-color:#000000;letter-spacing:0px;word-spacing:0px;text-transform:none;writing-mode:lr-tb;direction:ltr;text-orientation:mixed;dominant-baseline:auto;baseline-shift:baseline;text-anchor:start;white-space:normal;shape-padding:0;clip-rule:nonzero;display:inline;overflow:visible;visibility:visible;opacity:1;isolation:auto;mix-blend-mode:normal;color-interpolation:sRGB;color-interpolation-filters:linearRGB;solid-color:#000000;solid-opacity:1;vector-effect:none;fill:#4d4d4d;fill-opacity:1;fill-rule:nonzero;stroke:none;stroke-width:1.99999988;stroke-linecap:round;stroke-linejoin:miter;stroke-miterlimit:3.0999999;stroke-dasharray:none;stroke-dashoffset:0;stroke-opacity:1;paint-order:normal;color-rendering:auto;image-rendering:auto;shape-rendering:auto;text-rendering:auto;enable-background:accumulate"
       d="M 60.332031 21.269531 A 1.0001 1.0001 0 0 0 59.904297 23.185547 C 67.634765 26.635462 73.441605 33.327785 75.773438 41.464844 L 75.779297 41.46875 C 77.221636 46.539213 77.219918 51.8466 75.869141 56.822266 L 68.681641 54.996094 L 71.783203 65.986328 A 1.0001 1.0001 0 0 0 71.898438 66.396484 L 73.158203 70.861328 C 76.993558 66.928238 80.822313 62.989112 84.654297 59.052734 L 77.806641 57.3125 C 79.242743 51.997023 79.240101 46.328825 77.699219 40.916016 C 75.206443 32.209005 68.989452 25.048168 60.71875 21.357422 A 1.0001 1.0001 0 0 0 60.332031 21.269531 z "
       transform="matrix(0.26458333,0,0,0.26458333,0,270.54166)"
       id="path7290" />
  </g>
  <g
     inkscape:groupmode="layer"
     id="layer2"
     inkscape:label="Ebene 2"
     style="display:inline"
     sodipodi:insensitive="true">
    <path
       style="font-style:normal;font-variant:normal;font-weight:normal;font-stretch:normal;font-size:medium;line-height:6.61458302px;font-family:Montserrat;-inkscape-font-specification:'Montserrat, Normal';font-variant-ligatures:normal;font-variant-caps:normal;font-variant-numeric:normal;font-feature-settings:normal;text-align:start;letter-spacing:0px;word-spacing:0px;writing-mode:lr-tb;text-anchor:start;fill:#af6d04;fill-opacity:0.2745098;stroke:#000000;stroke-width:0.52916664;stroke-linecap:butt;stroke-linejoin:miter;stroke-miterlimit:4;stroke-dasharray:none;stroke-opacity:1"
       d="m 20.546724,21.478667 a 11.292137,11.292137 0 0 0 3.263455,-8.964543 11.292137,11.292137 0 0 0 -8.964178,3.26382 11.292137,11.292137 0 0 0 -3.25432,8.954677 11.292137,11.292137 0 0 0 8.955043,-3.253954 z M 22.85135,8.8753952 A 11.292137,11.292137 0 0 0 20.546358,5.5092607 11.292137,11.292137 0 0 0 6.1182418,4.2328921 11.292137,11.292137 0 0 0 8.4287138,7.5884292 11.292137,11.292137 0 0 0 22.85135,8.8753952 Z M 7.9321236,23.788773 A 11.292137,11.292137 0 0 0 6.6561214,9.3610213 11.292137,11.292137 0 0 0 3.2896219,7.0556655 11.292137,11.292137 0 0 0 4.5769529,21.478667 11.292137,11.292137 0 0 0 7.9321236,23.788773 Z"
       id="path4518"
       inkscape:connector-curvature="0" />
    <path
       style="font-style:normal;font-variant:normal;font-weight:normal;font-stretch:normal;font-size:medium;line-height:6.61458302px;font-family:Montserrat;-inkscape-font-specification:'Montserrat, Normal';font-variant-ligatures:normal;font-variant-caps:normal;font-variant-numeric:normal;font-feature-settings:normal;text-align:start;letter-spacing:0px;word-spacing:0px;writing-mode:lr-tb;text-anchor:start;display:inline;fill:#007377;fill-opacity:0.2745098;stroke:#000000;stroke-width:0.52916664;stroke-linecap:butt;stroke-linejoin:miter;stroke-miterlimit:4;stroke-dasharray:none;stroke-opacity:1"
       d="M 23.810179,12.514124 A 11.292137,11.292137 0 0 0 22.85135,8.8753952 11.292137,11.292137 0 0 1 8.4287138,7.5884292 11.292137,11.292137 0 0 1 6.1182418,4.2328921 11.292137,11.292137 0 0 0 4.5769528,5.508895 11.292137,11.292137 0 0 0 3.2896219,7.0556655 11.292137,11.292137 0 0 1 6.6561214,9.3610213 11.292137,11.292137 0 0 1 7.9321245,23.788773 a 11.292137,11.292137 0 0 0 3.6595565,0.943848 11.292137,11.292137 0 0 1 3.25432,-8.954677 11.292137,11.292137 0 0 1 8.964178,-3.26382 z"
       id="circle4575"
       inkscape:connector-curvature="0" />
  </g>
</svg>
